<mxfile host="65bd71144e">
    <diagram id="XKVClRmwsbRFSlRHqoZa" name="Page-1">
        <mxGraphModel dx="1210" dy="630" grid="1" gridSize="10" guides="1" tooltips="1" connect="1" arrows="1" fold="1" page="1" pageScale="1" pageWidth="850" pageHeight="1100" math="0" shadow="0">
            <root>
                <mxCell id="0"/>
                <mxCell id="1" parent="0"/>
                <mxCell id="113" value="" style="rounded=1;whiteSpace=wrap;html=1;fontSize=8;" vertex="1" parent="1">
                    <mxGeometry x="140.86" y="179" width="550" height="380" as="geometry"/>
                </mxCell>
                <mxCell id="25" value="" style="rounded=1;whiteSpace=wrap;html=1;fontSize=9;" vertex="1" parent="1">
                    <mxGeometry x="228.36" y="670" width="412.5" height="160" as="geometry"/>
                </mxCell>
                <mxCell id="28" value="S3 compactiible&amp;nbsp;&lt;br&gt;Minio Object storage&lt;br&gt;198.18.90.26" style="verticalLabelPosition=bottom;html=1;verticalAlign=top;strokeWidth=1;align=center;outlineConnect=0;dashed=0;outlineConnect=0;shape=mxgraph.aws3d.s3Bucket;fillColor=#4286c5;strokeColor=#57A2D8;aspect=fixed;fontSize=9;" vertex="1" parent="1">
                    <mxGeometry x="265.62" y="700" width="77.12" height="80" as="geometry"/>
                </mxCell>
                <mxCell id="30" value="Linode cloud bucket" style="verticalLabelPosition=bottom;html=1;verticalAlign=top;strokeWidth=1;align=center;outlineConnect=0;dashed=0;outlineConnect=0;shape=mxgraph.aws3d.s3Bucket;fillColor=#008a00;strokeColor=#005700;aspect=fixed;fontSize=9;fontColor=#ffffff;" vertex="1" parent="1">
                    <mxGeometry x="384.18" y="700" width="80.78" height="83.8" as="geometry"/>
                </mxCell>
                <mxCell id="59" value="Cobra File system backup" style="aspect=fixed;perimeter=ellipsePerimeter;html=1;align=center;shadow=0;dashed=0;spacingTop=3;image;image=img/lib/active_directory/hard_disk.svg;fontSize=9;" vertex="1" parent="1">
                    <mxGeometry x="514.1800000000001" y="710" width="94.07" height="50.8" as="geometry"/>
                </mxCell>
                <mxCell id="60" style="edgeStyle=orthogonalEdgeStyle;html=1;exitX=0.5;exitY=1;exitDx=0;exitDy=0;entryX=0;entryY=1;entryDx=0;entryDy=0;fontSize=9;" edge="1" parent="1" source="59" target="59">
                    <mxGeometry relative="1" as="geometry"/>
                </mxCell>
                <mxCell id="22" value="" style="edgeStyle=none;html=1;fontSize=9;" edge="1" parent="1">
                    <mxGeometry relative="1" as="geometry">
                        <mxPoint x="223.36" y="434.68" as="sourcePoint"/>
                        <mxPoint x="225.86" y="436.88000000000005" as="targetPoint"/>
                    </mxGeometry>
                </mxCell>
                <mxCell id="38" value="pv1" style="html=1;dashed=0;whitespace=wrap;fillColor=#2875E2;strokeColor=#ffffff;points=[[0.005,0.63,0],[0.1,0.2,0],[0.9,0.2,0],[0.5,0,0],[0.995,0.63,0],[0.72,0.99,0],[0.5,1,0],[0.28,0.99,0]];verticalLabelPosition=bottom;align=center;verticalAlign=top;shape=mxgraph.kubernetes.icon;prIcon=pv;fontSize=9;" vertex="1" parent="1">
                    <mxGeometry x="550.86" y="192.68" width="30" height="35" as="geometry"/>
                </mxCell>
                <mxCell id="39" value="pv3" style="html=1;dashed=0;whitespace=wrap;fillColor=#2875E2;strokeColor=#ffffff;points=[[0.005,0.63,0],[0.1,0.2,0],[0.9,0.2,0],[0.5,0,0],[0.995,0.63,0],[0.72,0.99,0],[0.5,1,0],[0.28,0.99,0]];verticalLabelPosition=bottom;align=center;verticalAlign=top;shape=mxgraph.kubernetes.icon;prIcon=pv;fontSize=9;" vertex="1" parent="1">
                    <mxGeometry x="550.86" y="277.68" width="30" height="30" as="geometry"/>
                </mxCell>
                <mxCell id="40" value="pv2" style="html=1;dashed=0;whitespace=wrap;fillColor=#2875E2;strokeColor=#ffffff;points=[[0.005,0.63,0],[0.1,0.2,0],[0.9,0.2,0],[0.5,0,0],[0.995,0.63,0],[0.72,0.99,0],[0.5,1,0],[0.28,0.99,0]];verticalLabelPosition=bottom;align=center;verticalAlign=top;shape=mxgraph.kubernetes.icon;prIcon=pv;fontSize=9;" vertex="1" parent="1">
                    <mxGeometry x="580.8599999999999" y="232.68" width="30" height="35" as="geometry"/>
                </mxCell>
                <mxCell id="71" style="edgeStyle=orthogonalEdgeStyle;html=1;entryX=-0.026;entryY=0.586;entryDx=0;entryDy=0;entryPerimeter=0;fontSize=9;" edge="1" parent="1" source="63" target="65">
                    <mxGeometry relative="1" as="geometry"/>
                </mxCell>
                <mxCell id="72" style="edgeStyle=orthogonalEdgeStyle;html=1;fontSize=9;" edge="1" parent="1" source="63" target="64">
                    <mxGeometry relative="1" as="geometry"/>
                </mxCell>
                <mxCell id="63" value="Control-Node&lt;br&gt;198.18.90.22" style="points=[];aspect=fixed;html=1;align=center;shadow=0;dashed=0;image;image=img/lib/allied_telesis/computer_and_terminals/Server_Desktop.svg;fontSize=9;" vertex="1" parent="1">
                    <mxGeometry x="280.53" y="307.68" width="86.78" height="110" as="geometry"/>
                </mxCell>
                <mxCell id="64" value="Worker Node1&lt;br&gt;198.18.90.24" style="points=[];aspect=fixed;html=1;align=center;shadow=0;dashed=0;image;image=img/lib/allied_telesis/computer_and_terminals/Server_Desktop.svg;fontSize=9;" vertex="1" parent="1">
                    <mxGeometry x="437.75" y="202.32" width="83.11" height="105.36" as="geometry"/>
                </mxCell>
                <mxCell id="65" value="Worker Node2&lt;br&gt;198.18.90.25" style="points=[];aspect=fixed;html=1;align=center;shadow=0;dashed=0;image;image=img/lib/allied_telesis/computer_and_terminals/Server_Desktop.svg;fontSize=9;" vertex="1" parent="1">
                    <mxGeometry x="440.86" y="413.68" width="80" height="101.41" as="geometry"/>
                </mxCell>
                <mxCell id="75" value="pv4" style="html=1;dashed=0;whitespace=wrap;fillColor=#2875E2;strokeColor=#ffffff;points=[[0.005,0.63,0],[0.1,0.2,0],[0.9,0.2,0],[0.5,0,0],[0.995,0.63,0],[0.72,0.99,0],[0.5,1,0],[0.28,0.99,0]];verticalLabelPosition=bottom;align=center;verticalAlign=top;shape=mxgraph.kubernetes.icon;prIcon=pv;fontSize=9;" vertex="1" parent="1">
                    <mxGeometry x="550.86" y="407.68" width="30" height="30" as="geometry"/>
                </mxCell>
                <mxCell id="76" value="pv5" style="html=1;dashed=0;whitespace=wrap;fillColor=#2875E2;strokeColor=#ffffff;points=[[0.005,0.63,0],[0.1,0.2,0],[0.9,0.2,0],[0.5,0,0],[0.995,0.63,0],[0.72,0.99,0],[0.5,1,0],[0.28,0.99,0]];verticalLabelPosition=bottom;align=center;verticalAlign=top;shape=mxgraph.kubernetes.icon;prIcon=pv;fontSize=9;" vertex="1" parent="1">
                    <mxGeometry x="580.8599999999999" y="457.68" width="30" height="30" as="geometry"/>
                </mxCell>
                <mxCell id="77" value="pv6" style="html=1;dashed=0;whitespace=wrap;fillColor=#2875E2;strokeColor=#ffffff;points=[[0.005,0.63,0],[0.1,0.2,0],[0.9,0.2,0],[0.5,0,0],[0.995,0.63,0],[0.72,0.99,0],[0.5,1,0],[0.28,0.99,0]];verticalLabelPosition=bottom;align=center;verticalAlign=top;shape=mxgraph.kubernetes.icon;prIcon=pv;fontSize=9;" vertex="1" parent="1">
                    <mxGeometry x="550.86" y="507.68" width="30" height="30" as="geometry"/>
                </mxCell>
                <mxCell id="108" style="edgeStyle=orthogonalEdgeStyle;html=1;fontSize=8;" edge="1" parent="1" source="95" target="63">
                    <mxGeometry relative="1" as="geometry"/>
                </mxCell>
                <mxCell id="95" value="" style="rounded=1;whiteSpace=wrap;html=1;fontSize=9;rotation=91;" vertex="1" parent="1">
                    <mxGeometry x="130" y="254.86" width="136.15" height="61.95" as="geometry"/>
                </mxCell>
                <mxCell id="103" value="" style="edgeStyle=elbowEdgeStyle;html=1;fontSize=8;" edge="1" parent="1" source="96" target="99">
                    <mxGeometry relative="1" as="geometry"/>
                </mxCell>
                <mxCell id="96" value="MetalLB load &lt;br&gt;balancer" style="verticalLabelPosition=bottom;html=1;verticalAlign=top;align=center;strokeColor=none;fillColor=#00BEF2;shape=mxgraph.azure.load_balancer_generic;pointerEvents=1;fontSize=9;" vertex="1" parent="1">
                    <mxGeometry x="177.45" y="227.68" width="37.5" height="30" as="geometry"/>
                </mxCell>
                <mxCell id="99" value="Ingress&lt;br style=&quot;font-size: 8px;&quot;&gt;Controller" style="aspect=fixed;html=1;points=[];align=center;image;fontSize=8;image=img/lib/azure2/networking/Virtual_Router.svg;" vertex="1" parent="1">
                    <mxGeometry x="181.2" y="288.04" width="30" height="30" as="geometry"/>
                </mxCell>
                <mxCell id="115" value="K8S Cluster" style="text;html=1;strokeColor=none;fillColor=none;align=center;verticalAlign=middle;whiteSpace=wrap;rounded=0;fontSize=19;fontStyle=1" vertex="1" parent="1">
                    <mxGeometry x="500" y="150" width="162.55" height="30" as="geometry"/>
                </mxCell>
                <mxCell id="121" style="edgeStyle=orthogonalEdgeStyle;sketch=0;html=1;entryX=0.166;entryY=-0.006;entryDx=0;entryDy=0;entryPerimeter=0;fontSize=19;" edge="1" parent="1" source="118" target="25">
                    <mxGeometry relative="1" as="geometry"/>
                </mxCell>
                <mxCell id="118" value="Velero" style="sketch=0;html=1;dashed=0;whitespace=wrap;fillColor=#2875E2;strokeColor=#ffffff;points=[[0.005,0.63,0],[0.1,0.2,0],[0.9,0.2,0],[0.5,0,0],[0.995,0.63,0],[0.72,0.99,0],[0.5,1,0],[0.28,0.99,0]];verticalLabelPosition=bottom;align=center;verticalAlign=top;shape=mxgraph.kubernetes.icon;prIcon=pod;fontSize=15;" vertex="1" parent="1">
                    <mxGeometry x="280.53" y="487.68" width="32.74" height="40" as="geometry"/>
                </mxCell>
                <mxCell id="119" style="edgeStyle=orthogonalEdgeStyle;sketch=0;html=1;exitX=0.5;exitY=1;exitDx=0;exitDy=0;exitPerimeter=0;entryX=0.44;entryY=0.625;entryDx=0;entryDy=0;entryPerimeter=0;fontSize=19;" edge="1" parent="1" source="118" target="118">
                    <mxGeometry relative="1" as="geometry"/>
                </mxCell>
                <mxCell id="124" value="" style="edgeStyle=orthogonalEdgeStyle;sketch=0;html=1;fontSize=15;entryX=0.862;entryY=-0.019;entryDx=0;entryDy=0;entryPerimeter=0;" edge="1" parent="1" source="122" target="25">
                    <mxGeometry relative="1" as="geometry">
                        <mxPoint x="378.75" y="607.6800000000001" as="targetPoint"/>
                    </mxGeometry>
                </mxCell>
                <mxCell id="122" value="&lt;font style=&quot;font-size: 8px;&quot;&gt;File system backup&lt;/font&gt;" style="verticalLabelPosition=bottom;html=1;verticalAlign=top;align=center;strokeColor=none;fillColor=#00BEF2;shape=mxgraph.azure.script_file;pointerEvents=1;fontSize=19;" vertex="1" parent="1">
                    <mxGeometry x="360" y="495.68" width="37.5" height="32" as="geometry"/>
                </mxCell>
                <mxCell id="125" value="Backup System" style="text;html=1;strokeColor=none;fillColor=none;align=center;verticalAlign=middle;whiteSpace=wrap;rounded=0;fontSize=15;" vertex="1" parent="1">
                    <mxGeometry x="140.86" y="630" width="120" height="40" as="geometry"/>
                </mxCell>
                <mxCell id="130" value="" style="endArrow=none;dashed=1;html=1;sketch=0;fontSize=15;" edge="1" parent="1">
                    <mxGeometry width="50" height="50" relative="1" as="geometry">
                        <mxPoint x="490.45" y="790" as="sourcePoint"/>
                        <mxPoint x="489.99999999999994" y="690" as="targetPoint"/>
                    </mxGeometry>
                </mxCell>
            </root>
        </mxGraphModel>
    </diagram>
</mxfile>